# Blender 4.4.0
# www.blender.org
mtllib cortinas.mtl
o Curtain-material
v 5.474165 -162.973465 -9.950927
v 2.388038 -158.608765 -15.998309
v 2.972799 161.260071 -16.015547
v 5.474162 166.951508 -12.235475
v -2.468346 160.302383 -15.998300
v -5.517797 165.777725 -11.792537
v -2.307125 -154.765213 -4.089420
v -3.237316 167.117920 -8.142180
v 2.226815 156.458801 -4.089418
v -2.307019 172.813141 -20.443666
v 2.972802 160.886917 -135.823853
v 5.437487 165.777725 -139.673782
v -2.468371 160.904266 -134.866089
v -5.554469 166.951508 -139.230835
v 2.226688 172.813156 -131.022659
v 3.157015 167.117935 -143.324066
v -2.307019 156.458862 -147.376938
v 3.683897 -160.219757 -135.985123
v 5.474164 -165.258072 -139.230774
v -3.053094 -159.193344 -135.823837
v -5.517798 -164.084229 -139.673767
v -3.237335 -165.424454 -143.324051
v 2.226693 -154.765366 -147.376938
v 0.109727 -159.298553 -133.897598
v -2.307097 -171.119553 -131.022598
v -3.053052 -159.566437 -16.015625
v -5.517805 -163.416458 -11.124769
v -3.237421 -167.066589 -9.784453
v 2.226740 -171.119507 -20.443581
v 5.474169 -162.973450 141.515564
v 3.683886 -159.727768 136.477249
v 2.972792 161.260071 135.450897
v 5.474165 166.951492 139.231018
v 0.109743 -157.640305 135.556046
v -2.468337 160.302353 135.468155
v -5.517804 165.777695 139.673965
v -2.307124 -154.765213 147.377045
v -3.237321 167.117981 143.324219
v 2.226790 156.458847 147.377045
v -2.307002 172.813156 131.022842
v 2.972753 160.886917 15.642671
v 5.437490 165.777725 11.792704
v -2.468351 160.904266 16.600378
v -5.554470 166.951508 12.235668
v 2.226702 172.813156 20.443823
v 3.157040 167.117950 8.142459
v -2.306990 156.458878 4.089538
v 3.683895 -160.219772 15.481329
v 5.474165 -165.258072 12.235726
v -3.053045 -159.193344 15.642684
v -5.517801 -164.084229 11.792727
v -3.237360 -165.424454 8.142478
v 2.226664 -154.765381 4.089537
v 0.109722 -159.298553 17.568865
v -2.307111 -171.119553 20.443878
v -3.053045 -159.566422 135.450821
v -5.517807 -163.416443 140.341721
v -3.237428 -167.066574 141.682022
v 2.226723 -171.119507 131.022919
v 0.481785 -152.945709 137.853699
v 0.481785 132.622299 137.853699
v -0.040153 132.622299 13.612910
v 0.481785 -152.945709 13.612910
v 0.481785 -152.945709 -13.612761
v 0.481785 132.622299 -13.612761
v -0.040153 132.622299 -137.853500
v 0.481785 -152.945709 -137.853500
v 1.003723 132.622299 13.612910
v 1.003723 132.622299 -137.853500
v -1.985786 103.982033 -6.701996
v -1.985786 102.684967 6.702118
v 1.905464 101.387901 6.702118
v 1.905464 101.387901 -6.701996
v 1.905464 105.279099 -6.701996
v 1.905464 105.279099 6.702118
v -1.985786 113.055000 -6.701996
v -1.985786 113.055000 6.702118
v -0.688703 116.946304 6.702118
v 0.608381 116.946304 -6.701996
v 1.905464 113.055000 6.702118
v 1.905464 113.055000 -6.701996
v -1.985786 -105.279198 6.702118
v 0.608381 -101.387901 6.702118
v -1.985786 -101.387901 -6.701996
v 0.608381 -105.279198 -6.701996
v 1.905464 -101.387901 -6.701996
v 1.905464 -105.279198 6.702118
v -1.985786 -116.946297 6.702118
v 0.608381 -113.055008 6.702118
v -0.688703 -113.055008 -6.701996
v -1.985786 -116.946297 -6.701996
v 1.905464 -116.946297 -6.701996
v 1.905464 -116.946297 6.702118
vn 0.8250 -0.3118 0.4714
vn 0.6732 0.5356 -0.5098
vn 0.7566 -0.4295 -0.4930
vn 0.8190 0.4771 0.3186
vn -0.6585 -0.4739 -0.5846
vn 0.2799 0.1068 0.9541
vn -0.2459 -0.1062 0.9635
vn -0.3598 0.5740 0.7356
vn -0.9612 -0.1920 0.1980
vn -0.9644 0.1899 0.1840
vn -0.7468 0.5093 -0.4276
vn -0.2471 0.9621 0.1149
vn 0.7491 -0.4254 0.5079
vn 0.9622 0.1921 -0.1929
vn -0.6715 -0.5065 0.5409
vn 0.2480 0.9615 -0.1185
vn -0.8244 0.4703 -0.3148
vn 0.3621 0.5734 -0.7349
vn -0.2816 0.1003 -0.9543
vn 0.8007 0.3914 0.4535
vn 0.8107 -0.4850 -0.3279
vn -0.7029 0.4715 0.5326
vn 0.2828 -0.1043 -0.9535
vn -0.3601 -0.5737 -0.7357
vn -0.9615 -0.1972 -0.1912
vn 0.1424 0.9883 -0.0556
vn -0.2536 -0.9611 -0.1095
vn 0.2886 -0.9503 0.1165
vn -0.3594 -0.7344 0.5758
vn 0.8105 -0.3288 0.4848
vn 0.8083 0.4391 -0.3922
vn 0.7562 -0.4303 -0.4929
vn 0.1448 -0.0579 -0.9878
vn -0.6555 -0.4750 -0.5871
vn -0.6964 0.5387 -0.4742
vn -0.2471 0.9621 0.1150
vn 0.9622 0.1920 -0.1929
vn 0.2479 0.9615 -0.1184
vn -0.2816 0.1002 -0.9543
vn 0.8005 0.3944 0.4513
vn 0.8101 -0.4851 -0.3292
vn -0.0000 -0.7760 0.6307
vn -0.0000 0.5369 0.8437
vn -0.7086 -0.0003 -0.7056
vn -0.0000 -0.8416 -0.5402
vn 0.7082 0.7060 0.0022
vn -0.0000 1.0000 -0.0000
vn -0.0000 -0.0000 -1.0000
vn -0.9850 0.1596 -0.0651
vn -0.9850 -0.1596 0.0651
vn 0.4935 0.8672 0.0664
vn 0.5847 0.8113 -0.0000
vn 0.5847 -0.8113 -0.0000
vn 0.4935 -0.8672 -0.0664
vn -0.8672 -0.4935 -0.0664
vn -0.8113 -0.5847 -0.0000
vn -0.1596 0.9850 0.0651
vn 0.1596 0.9850 -0.0651
vn 0.8672 -0.4935 0.0664
vn 0.8113 -0.5847 -0.0000
vn -0.8513 -0.5154 0.0980
vn 0.2136 0.9721 0.0975
vn -0.8513 0.5154 -0.0980
vn 0.2136 -0.9721 -0.0975
vn 0.8244 0.5604 0.0798
vn 0.8244 -0.5604 -0.0798
vn -0.8672 -0.4935 0.0664
vn 0.1596 0.9850 0.0651
vn -0.1596 0.9850 -0.0651
vn 0.8672 -0.4935 -0.0664
vt 0.041334 0.520130
vt 0.052627 0.518398
vt 0.049515 0.003393
vt 0.042526 0.002112
vt 0.056601 0.003924
vt 0.032046 0.000570
vt 0.024857 0.521454
vt 0.021365 0.000832
vt 0.014376 0.519912
vt 0.014376 0.002112
vt 0.007387 0.518631
vt 0.004275 0.003626
vt 0.000301 0.518101
vt 0.546958 0.485104
vt 0.552370 0.493919
vt 0.567649 0.488792
vt 0.549284 0.500287
vt 0.531623 0.496622
vt 0.212042 0.520131
vt 0.223725 0.518369
vt 0.220223 0.338804
vt 0.213234 0.337523
vt 0.227308 0.339334
vt 0.202753 0.335981
vt 0.195564 0.521454
vt 0.186275 0.337304
vt 0.185084 0.519912
vt 0.178095 0.518631
vt 0.174983 0.339037
vt 0.171009 0.518101
vt 0.397851 0.441652
vt 0.400936 0.435284
vt 0.380189 0.437987
vt 0.395524 0.426469
vt 0.416215 0.430158
vt 0.071279 0.002113
vt 0.060788 0.003656
vt 0.064290 0.518632
vt 0.071279 0.519912
vt 0.078268 0.000832
vt 0.057204 0.518101
vt 0.081760 0.521454
vt 0.088948 0.000571
vt 0.092439 0.521193
vt 0.099429 0.002113
vt 0.099429 0.519912
vt 0.106418 0.003393
vt 0.109920 0.518369
vt 0.113504 0.003924
vt 0.398498 0.512595
vt 0.387998 0.521723
vt 0.399995 0.520041
vt 0.400880 0.500310
vt 0.395468 0.491496
vt 0.380189 0.496622
vt 0.398554 0.485128
vt 0.416215 0.488792
vt 0.268944 0.520131
vt 0.277125 0.518631
vt 0.277125 0.338804
vt 0.270136 0.337523
vt 0.284211 0.518101
vt 0.284211 0.339334
vt 0.259655 0.335981
vt 0.252467 0.521454
vt 0.248975 0.336242
vt 0.241986 0.519912
vt 0.241986 0.337523
vt 0.234997 0.518631
vt 0.231495 0.339066
vt 0.227911 0.518101
vt 0.363022 0.441676
vt 0.357610 0.432861
vt 0.342331 0.437987
vt 0.360695 0.426493
vt 0.378357 0.430157
vt 0.874499 0.998106
vt 0.882680 0.996607
vt 0.882680 0.481368
vt 0.875691 0.480088
vt 0.889766 0.996076
vt 0.889766 0.481899
vt 0.865210 0.478546
vt 0.858021 0.999429
vt 0.854530 0.478807
vt 0.847541 0.997887
vt 0.847541 0.480088
vt 0.840552 0.996607
vt 0.837440 0.481602
vt 0.833466 0.996076
vt 0.363022 0.500311
vt 0.357610 0.491496
vt 0.342331 0.496622
vt 0.360695 0.485128
vt 0.378357 0.488793
vt 0.325847 0.520131
vt 0.337529 0.518369
vt 0.334027 0.338804
vt 0.327038 0.337523
vt 0.341113 0.339334
vt 0.316558 0.335981
vt 0.309369 0.521454
vt 0.300080 0.337305
vt 0.298889 0.519912
vt 0.291900 0.518631
vt 0.288787 0.339037
vt 0.284814 0.518101
vt 0.512129 0.485128
vt 0.509043 0.491496
vt 0.529791 0.488792
vt 0.514456 0.500310
vt 0.493764 0.496622
vt 0.904443 0.480088
vt 0.893952 0.481631
vt 0.897454 0.996607
vt 0.904443 0.997887
vt 0.911433 0.478807
vt 0.890369 0.996076
vt 0.914924 0.999429
vt 0.922112 0.478546
vt 0.925604 0.999168
vt 0.932593 0.480088
vt 0.932593 0.997887
vt 0.939582 0.481368
vt 0.943084 0.996344
vt 0.946668 0.481899
vt 0.474214 0.512595
vt 0.463715 0.521723
vt 0.475712 0.520041
vt 0.476597 0.500310
vt 0.471185 0.491496
vt 0.455906 0.496622
vt 0.474271 0.485128
vt 0.491932 0.488792
vt 0.129373 0.337305
vt 0.121192 0.338804
vt 0.121192 0.518631
vt 0.128181 0.519912
vt 0.114106 0.339334
vt 0.114106 0.518101
vt 0.138662 0.521454
vt 0.145850 0.335981
vt 0.149342 0.521193
vt 0.156331 0.337523
vt 0.156331 0.519912
vt 0.163320 0.338804
vt 0.166822 0.518369
vt 0.170406 0.339334
vt 0.435765 0.472820
vt 0.446265 0.463691
vt 0.434268 0.465374
vt 0.433383 0.485104
vt 0.438795 0.493919
vt 0.454074 0.488792
vt 0.435709 0.500287
vt 0.418048 0.496622
vt 0.000301 0.522326
vt 0.000301 0.999699
vt 0.207990 0.999699
vt 0.207990 0.522326
vt 0.208593 0.522326
vt 0.208593 0.999699
vt 0.416281 0.999699
vt 0.416281 0.522326
vt 0.624572 0.522326
vt 0.416884 0.522326
vt 0.416884 0.999699
vt 0.624572 0.999699
vt 0.832863 0.522326
vt 0.625175 0.522326
vt 0.625175 0.999699
vt 0.832863 0.999699
vt 0.577655 0.314035
vt 0.575910 0.314035
vt 0.576783 0.521723
vt 0.951967 0.999699
vt 0.953712 0.999699
vt 0.952839 0.522327
vt 0.578258 0.521723
vt 0.580003 0.521723
vt 0.579131 0.314035
vt 0.949619 0.999699
vt 0.951364 0.999699
vt 0.950491 0.522326
vt 0.455291 0.458752
vt 0.477699 0.460920
vt 0.477699 0.450078
vt 0.455291 0.450078
vt 0.477699 0.443574
vt 0.455291 0.443574
vt 0.477699 0.437069
vt 0.455291 0.437069
vt 0.454688 0.437069
vt 0.432281 0.437069
vt 0.432281 0.445742
vt 0.454688 0.447910
vt 0.432281 0.456583
vt 0.454688 0.456583
vt 0.432281 0.463088
vt 0.454688 0.463088
vt 0.523718 0.463088
vt 0.523718 0.452247
vt 0.501311 0.456583
vt 0.501311 0.463088
vt 0.501311 0.450079
vt 0.501311 0.441406
vt 0.523718 0.443574
vt 0.523718 0.437069
vt 0.500709 0.463088
vt 0.500709 0.452247
vt 0.478301 0.454415
vt 0.478301 0.463088
vt 0.478301 0.443574
vt 0.500709 0.443574
vt 0.478301 0.437069
vt 0.500709 0.437069
s 1
usemtl Curtain
f 9/6/6 8/8/8 7/7/7
f 27/9/9 7/7/7 8/8/8
f 8/8/8 6/10/10 27/9/9
f 26/11/11 27/9/9 6/10/10
f 6/10/10 5/12/5 26/11/11
f 2/13/2 26/11/11 5/12/5
f 15/24/16 14/26/17 10/25/12
f 6/27/10 10/25/12 14/26/17
f 5/28/5 6/27/10 14/26/17
f 14/26/17 13/29/15 5/28/5
f 3/30/3 5/28/5 13/29/15
f 14/34/17 15/33/16 16/32/18
f 14/34/17 16/32/18 17/35/19
f 12/36/14 11/37/13 18/38/20
f 18/38/20 19/39/21 12/36/14
f 20/41/22 18/38/20 11/37/13
f 23/42/23 22/44/24 17/43/19
f 14/45/17 17/43/19 22/44/24
f 22/44/24 21/46/25 14/45/17
f 13/47/15 14/45/17 21/46/25
f 21/46/25 20/48/22 13/47/15
f 11/49/13 13/47/15 20/48/22
f 18/50/20 20/51/22 24/52/26
f 19/53/21 22/54/24 23/55/23
f 21/56/25 22/54/24 25/57/27
f 19/53/21 25/57/27 22/54/24
f 29/64/28 28/66/29 25/65/27
f 21/67/25 25/65/27 28/66/29
f 28/66/29 27/68/9 21/67/25
f 20/69/22 21/67/25 27/68/9
f 27/68/9 26/70/11 20/69/22
f 27/75/9 28/73/29 7/76/7
f 39/83/6 38/85/8 37/84/7
f 57/86/9 37/84/7 38/85/8
f 38/85/8 36/87/10 57/86/9
f 56/88/35 57/86/9 36/87/10
f 36/87/10 35/89/34 56/88/35
f 34/90/33 56/88/35 35/89/34
f 36/94/10 38/92/8 40/95/36
f 45/101/38 44/103/17 40/102/36
f 36/104/10 40/102/36 44/103/17
f 35/105/34 36/104/10 44/103/17
f 44/103/17 43/106/15 35/105/34
f 32/107/32 35/105/34 43/106/15
f 44/111/17 45/110/38 46/109/18
f 44/111/17 46/109/18 47/112/39
f 42/113/37 41/114/13 48/115/40
f 48/115/40 49/116/41 42/113/37
f 50/118/22 48/115/40 41/114/13
f 53/119/23 52/121/24 47/120/39
f 44/122/17 47/120/39 52/121/24
f 52/121/24 51/123/25 44/122/17
f 43/124/15 44/122/17 51/123/25
f 51/123/25 50/125/22 43/124/15
f 41/126/13 43/124/15 50/125/22
f 48/127/40 50/128/22 54/129/26
f 49/130/41 52/131/24 53/132/23
f 51/133/25 52/131/24 55/134/27
f 49/130/41 55/134/27 52/131/24
f 55/142/27 49/135/41 59/141/28
f 59/141/28 58/143/29 55/142/27
f 51/144/25 55/142/27 58/143/29
f 58/143/29 57/145/9 51/144/25
f 50/146/22 51/144/25 57/145/9
f 57/145/9 56/147/35 50/146/22
f 30/152/30 58/153/29 59/154/28
f 57/155/9 58/153/29 37/156/7
f 60/157/42 61/158/43 62/159/44
f 62/159/44 63/160/45 60/157/42
f 64/161/42 65/162/43 66/163/44
f 66/163/44 67/164/45 64/161/42
f 68/165/46 61/166/43 60/167/42
f 60/167/42 63/168/45 68/165/46
f 69/169/46 65/170/43 64/171/42
f 64/171/42 67/172/45 69/169/46
f 69/173/46 66/174/47 65/175/43
f 66/176/44 69/177/48 67/178/45
f 68/179/46 62/180/47 61/181/43
f 62/182/44 68/183/48 63/184/45
f 70/185/49 71/186/50 75/187/51
f 75/187/51 74/188/52 70/185/49
f 74/188/52 75/187/51 72/189/53
f 72/189/53 73/190/54 74/188/52
f 73/190/54 72/189/53 71/191/50
f 71/191/50 70/192/49 73/190/54
f 76/193/55 77/194/56 78/195/57
f 78/195/57 79/196/58 76/193/55
f 79/196/58 78/195/57 80/197/59
f 80/197/59 81/198/60 79/196/58
f 81/198/60 80/197/59 77/199/56
f 77/199/56 76/200/55 81/198/60
f 82/201/61 83/202/62 84/203/63
f 84/203/63 85/204/64 82/201/61
f 86/205/65 84/203/63 83/202/62
f 85/206/64 86/205/65 83/202/62
f 83/202/62 87/207/66 85/206/64
f 87/207/66 82/208/61 85/206/64
f 88/209/67 89/210/68 90/211/69
f 90/211/69 91/212/56 88/209/67
f 92/213/70 90/211/69 89/210/68
f 89/210/68 93/214/60 92/213/70
f 91/215/56 92/213/70 93/214/60
f 93/214/60 88/216/67 91/215/56
usemtl Material.001
f 1/1/1 2/2/2 3/3/3
f 3/3/3 4/4/4 1/1/1
f 5/5/5 3/3/3 2/2/2
f 4/4/4 9/6/6 1/1/1
f 7/7/7 1/1/1 9/6/6
f 4/14/4 8/15/8 9/16/6
f 6/17/10 8/15/8 10/18/12
f 4/14/4 10/18/12 8/15/8
f 4/19/4 3/20/3 11/21/13
f 11/21/13 12/22/14 4/19/4
f 13/23/15 11/21/13 3/20/3
f 12/22/14 15/24/16 4/19/4
f 10/25/12 4/19/4 15/24/16
f 12/31/14 16/32/18 15/33/16
f 16/40/18 12/36/14 19/39/21
f 19/39/21 23/42/23 16/40/18
f 17/43/19 16/40/18 23/42/23
f 19/58/21 18/59/20 2/60/2
f 2/60/2 1/61/1 19/58/21
f 18/59/20 24/62/26 26/63/11
f 26/63/11 2/60/2 18/59/20
f 1/61/1 29/64/28 19/58/21
f 25/65/27 19/58/21 29/64/28
f 24/71/26 20/69/22 26/70/11
f 1/72/1 28/73/29 29/74/28
f 1/72/1 7/76/7 28/73/29
f 30/77/30 31/78/31 32/79/32
f 32/79/32 33/80/4 30/77/30
f 31/78/31 34/81/33 35/82/34
f 35/82/34 32/79/32 31/78/31
f 33/80/4 39/83/6 30/77/30
f 37/84/7 30/77/30 39/83/6
f 33/91/4 38/92/8 39/93/6
f 33/91/4 40/95/36 38/92/8
f 33/96/4 32/97/32 41/98/13
f 41/98/13 42/99/37 33/96/4
f 43/100/15 41/98/13 32/97/32
f 42/99/37 45/101/38 33/96/4
f 40/102/36 33/96/4 45/101/38
f 42/108/37 46/109/18 45/110/38
f 46/117/18 42/113/37 49/116/41
f 49/116/41 53/119/23 46/117/18
f 47/120/39 46/117/18 53/119/23
f 49/135/41 48/136/40 31/137/31
f 31/137/31 30/138/30 49/135/41
f 48/136/40 54/139/26 56/140/35
f 56/140/35 31/137/31 48/136/40
f 30/138/30 59/141/28 49/135/41
f 54/148/26 50/146/22 56/147/35
f 31/149/31 56/150/35 34/151/33
f 30/152/30 37/156/7 58/153/29
