# Blender 4.4.0
# www.blender.org
mtllib Monitor.mtl
o object1
v -14.968040 0.293375 -1.316250
v -14.697589 0.034647 -1.316250
v 14.548304 0.023367 -1.316250
v 14.838871 0.293373 -1.316250
v 14.850323 19.743908 -1.316252
v 14.568421 20.019318 -1.316252
v -14.677474 20.030600 -1.316252
v -14.979491 19.743908 -1.316252
v 13.497999 18.721701 -0.631434
v -12.098643 18.725662 -0.641968
v -13.826304 16.677122 -0.643171
v -13.822853 1.360323 -0.631433
v 13.493008 1.365315 -0.645131
v -12.315786 19.218786 -0.000380
v 13.893591 19.120914 -0.002150
v 13.888957 0.929423 -0.003137
v -14.505260 0.500000 -0.000000
v 14.376091 0.500000 -0.000000
v 14.545886 19.723761 -0.018165
v -14.505261 19.553967 -0.000001
v -14.222067 0.964733 -0.002148
v -14.323743 16.843971 -0.000130
v -12.139671 18.803104 -0.249864
v -12.211271 18.975666 -0.067779
v 13.565347 18.789402 -0.255145
v 13.698275 18.925596 -0.075231
v -13.906099 16.706211 -0.248804
v -14.081188 16.770691 -0.066996
v -13.891702 1.293146 -0.253662
v -14.021715 1.149893 -0.074969
v 13.562152 1.294451 -0.254802
v 13.708654 1.163859 -0.074149
v 14.876091 0.500000 -0.500000
v 14.828969 19.772474 -0.278344
v -14.726854 20.006844 -0.281423
v 14.376091 20.053967 -0.500001
v 14.710470 19.928421 -0.165680
v -14.833238 19.881945 -0.113423
v 14.760075 0.165909 -0.162776
v 14.626116 0.249975 -0.066951
v -14.959014 19.770336 -0.283561
v -14.713249 0.037260 -0.291930
v 14.597685 0.047123 -0.281423
v -15.005260 0.500000 -0.500000
v -14.755285 0.249975 -0.066951
v -14.881149 0.160436 -0.166806
vn -0.7058 -0.3109 -0.6366
vn 0.2567 0.7168 -0.6483
vn -0.2649 -0.7237 -0.6373
vn -0.3120 0.7324 -0.6051
vn -0.7237 0.2796 -0.6310
vn 0.7090 0.2939 -0.6411
vn 0.3077 -0.7336 -0.6059
vn 0.7041 -0.3145 -0.6367
vn 0.2995 -0.6352 0.7119
vn -0.5457 0.5039 0.6696
vn -0.5142 -0.5390 0.6672
vn 0.6582 -0.2409 0.7133
vn 0.5091 0.5302 0.6781
vn -0.9879 -0.0964 0.1215
vn -0.2544 -0.9216 0.2931
vn 0.2159 -0.9137 0.3444
vn 0.9914 -0.1074 0.0749
vn 0.8888 0.2477 0.3855
vn 0.0997 0.9872 0.1241
vn -0.8879 0.3352 0.3152
vn -0.2682 0.9395 0.2132
vn 0.5321 0.6439 0.5498
vn -0.6467 -0.4975 0.5781
vn 0.3168 -0.7817 0.5371
vn -0.5741 -0.6035 0.5534
vn 0.7719 -0.3233 0.5474
vn 0.5505 0.5725 0.6076
vn -0.5632 0.5696 0.5986
vn -0.0013 -0.0799 0.9968
vn -0.2709 -0.2899 0.9179
vn -0.0553 -0.0507 0.9972
vn -0.1782 0.1511 0.9723
vn -0.0677 0.0517 0.9964
vn 0.2334 0.1534 0.9602
vn 0.0523 0.0213 0.9984
vn -0.0855 -0.0491 0.9951
vn 0.2567 0.3145 0.9139
vn -0.3031 0.2972 0.9054
vn 0.0390 -0.0534 0.9978
vn 0.2271 -0.3538 0.9073
vn -0.2087 -0.3223 0.9234
vn 0.1193 -0.0473 0.9917
vn 0.4394 -0.0925 0.8935
vn 0.2344 -0.3705 0.8988
vn -0.5100 0.4726 0.7187
vn 0.7163 -0.4712 0.5147
vt 0.490824 0.038457
vt 0.019486 0.353142
vt 0.486708 0.034505
vt 0.486364 0.353235
vt 0.490903 0.348896
vt 0.015291 0.348896
vt 0.019831 0.034412
vt 0.015370 0.038457
vt 0.986381 0.656815
vt 0.577452 0.050323
vt 0.988283 0.051613
vt 0.937660 0.697524
vt 0.575423 0.696386
vt 0.509719 0.028078
vt 0.523895 0.031609
vt 0.509714 0.367726
vt 0.028638 0.851446
vt 0.539752 0.833613
vt 0.539445 0.851439
vt 0.027728 0.833384
vt 0.905247 0.957261
vt 0.569255 0.974246
vt 0.565615 0.960099
vt 0.906003 0.975312
vt 0.017208 0.913447
vt 0.524721 0.899261
vt 0.528013 0.913440
vt 0.527705 0.368272
vt 0.497571 0.973295
vt 0.516203 0.977818
vt 0.497571 0.977817
vt 0.971526 0.669237
vt 0.971254 0.650609
vt 0.975777 0.650544
vt 0.529094 0.894827
vt 0.532303 0.913225
vt 0.023981 0.851227
vt 0.543724 0.851227
vt 0.528329 0.027238
vt 0.509235 0.026839
vt 0.957395 0.020097
vt 0.956925 0.027020
vt 0.508804 0.020092
vt 0.538732 0.333326
vt 0.527328 0.294852
vt 0.534285 0.294566
vt 0.538549 0.027921
vt 0.015603 0.982429
vt 0.014899 0.975827
vt 0.493520 0.982657
vt 0.572717 0.898959
vt 0.877251 0.889567
vt 0.876611 0.896283
vt 0.571926 0.892021
vt 0.061558 0.731217
vt 0.515354 0.726363
vt 0.518165 0.729231
vt 0.023025 0.737814
vt 0.517669 0.413995
vt 0.530541 0.740700
vt 0.028991 0.414151
vt 0.023025 0.404992
vt 0.031969 0.416855
vt 0.515428 0.417066
vt 0.527636 0.404992
vt 0.532004 0.400598
vt 0.018656 0.400598
vt 0.026567 0.690368
vt 0.030646 0.689082
vt 0.063202 0.727420
vt 0.017364 0.743424
vt 0.064388 0.724514
vt 0.513306 0.724206
vt 0.531818 0.333987
vt 0.033561 0.687950
vt 0.531810 0.027400
vt 0.033821 0.418935
vt 0.493938 0.975759
vt 0.015603 0.971706
vt 0.513279 0.418909
vt 0.564927 0.978716
vt 0.016295 0.895386
vt 0.533446 0.744205
vt 0.908670 0.977393
vt 0.018655 0.745281
vt 0.973489 0.648766
vt 0.535206 0.742083
vt 0.016580 0.399097
vt 0.025062 0.831311
vt 0.534121 0.399147
vt 0.532006 0.397325
vt 0.018655 0.397325
vt 0.015456 0.742083
vt 0.542603 0.831262
s 1
usemtl object1_auv
f 10/9/9 13/10/10 9/11/11
f 11/12/12 13/10/10 10/9/9
f 12/13/13 13/10/10 11/12/12
usemtl gris3
f 1/1/1 6/2/2 2/3/3
f 1/1/1 7/4/4 6/2/2
f 1/1/1 8/5/5 7/4/4
f 2/3/3 5/6/6 3/7/7
f 2/3/3 6/2/2 5/6/6
f 3/7/7 5/6/6 4/8/8
f 1/14/1 44/15/14 8/16/5
f 3/17/7 42/18/15 2/19/3
f 3/17/7 43/20/16 42/18/15
f 5/21/6 33/22/17 4/23/8
f 5/21/6 34/24/18 33/22/17
f 7/25/4 36/26/19 6/27/2
f 8/16/5 44/15/14 41/28/20
f 8/29/5 35/30/21 7/31/4
f 8/32/5 41/33/20 35/34/21
f 6/27/2 37/35/22 5/36/6
f 4/37/8 43/20/16 3/17/7
f 2/19/3 42/18/15 1/38/1
f 1/14/1 46/39/23 44/15/14
f 9/40/11 23/41/24 10/42/9
f 9/40/11 25/43/25 23/41/24
f 10/44/9 27/45/26 11/46/12
f 11/46/12 27/45/26 12/47/13
f 12/48/13 29/49/27 13/50/10
f 13/51/10 25/52/25 9/53/11
f 13/51/10 31/54/28 25/52/25
f 14/55/29 26/56/30 15/57/31
f 15/57/31 20/58/32 14/55/29
f 15/57/31 26/56/30 16/59/33
f 16/59/33 19/60/34 15/57/31
f 16/59/33 21/61/35 17/62/36
f 16/59/33 30/63/37 21/61/35
f 16/59/33 32/64/38 30/63/37
f 17/62/36 18/65/39 16/59/33
f 17/62/36 40/66/40 18/65/39
f 17/62/36 45/67/41 40/66/40
f 18/65/39 19/60/34 16/59/33
f 18/65/39 40/66/40 19/60/34
f 19/60/34 20/58/32 15/57/31
f 21/61/35 30/63/37 22/68/42
f 22/68/42 17/62/36 21/61/35
f 22/68/42 30/63/37 28/69/43
f 22/68/42 28/69/43 14/55/29
f 14/55/29 20/58/32 22/68/42
f 14/55/29 28/69/43 24/70/44
f 20/58/32 17/62/36 22/68/42
f 20/58/32 38/71/45 17/62/36
f 23/72/24 25/73/25 24/70/44
f 23/74/24 27/45/26 10/44/9
f 23/72/24 28/69/43 27/75/26
f 24/70/44 26/56/30 14/55/29
f 24/70/44 28/69/43 23/72/24
f 25/73/25 26/56/30 24/70/44
f 25/73/25 32/64/38 26/56/30
f 26/56/30 32/64/38 16/59/33
f 27/45/26 29/76/27 12/47/13
f 28/69/43 29/77/27 27/75/26
f 28/69/43 30/63/37 29/77/27
f 29/49/27 31/78/28 13/50/10
f 30/79/37 31/78/28 29/49/27
f 30/63/37 32/64/38 31/80/28
f 31/80/28 32/64/38 25/73/25
f 33/22/17 39/81/46 4/23/8
f 34/24/18 39/81/46 33/22/17
f 35/82/21 36/26/19 7/25/4
f 36/26/19 37/35/22 6/27/2
f 36/26/19 35/82/21 37/35/22
f 37/83/22 38/71/45 19/60/34
f 37/84/22 34/24/18 5/21/6
f 35/85/21 38/71/45 37/83/22
f 35/34/21 41/33/20 38/86/45
f 19/60/34 38/71/45 20/58/32
f 19/60/34 34/87/18 37/83/22
f 19/60/34 40/66/40 34/87/18
f 38/71/45 45/67/41 17/62/36
f 38/71/45 46/88/23 45/67/41
f 39/89/46 43/20/16 4/37/8
f 34/87/18 40/66/40 39/90/46
f 40/66/40 43/91/16 39/90/46
f 40/66/40 45/67/41 42/92/15
f 41/93/20 46/88/23 38/71/45
f 44/15/14 46/39/23 41/28/20
f 42/92/15 43/91/16 40/66/40
f 42/18/15 46/94/23 1/38/1
f 45/67/41 46/88/23 42/92/15
