# Blender 4.4.0
# www.blender.org
mtllib Inhalador entero.mtl
o Cylinder
v -0.017777 1.164491 0.154711
v -0.017777 3.579253 0.307640
v 0.667161 1.164491 0.439605
v 0.517161 3.560491 0.536415
v 0.667161 1.164491 1.009391
v 0.517161 3.781500 0.912581
v -0.017777 1.164491 1.294285
v -0.017777 3.762738 1.141356
v -0.702715 1.164491 1.009391
v -0.552715 3.781500 0.912581
v -0.702715 1.164491 0.439605
v -0.552715 3.560491 0.536415
v -0.016401 0.685919 1.584007
v 0.570017 0.441639 1.584072
v 0.570017 0.003111 1.584187
v -0.016401 -0.241170 1.584252
v -0.602819 0.003111 1.584187
v -0.602819 0.441639 1.584072
v 0.667960 0.374034 0.441739
v 0.669237 -0.005947 0.971011
v 0.668060 0.637896 1.038038
v 0.669096 0.524990 1.181605
v -0.017320 0.863855 1.291432
v -0.016899 0.790000 1.287598
v -0.702801 0.636513 1.039032
v -0.702753 0.524072 1.182998
v -0.702901 0.372651 0.442732
v -0.702611 -0.006866 0.972404
v -0.016616 -0.271875 0.866410
v -0.017521 0.241411 0.161056
v 0.667161 3.528125 0.439605
v -0.017777 3.528125 0.154711
v 0.667161 3.813866 1.009391
v -0.017777 3.813866 1.294285
v -0.702715 3.813866 1.009391
v -0.702715 3.528125 0.439605
v 0.517161 0.859166 0.484567
v -0.017777 0.877928 0.255792
v 0.517161 1.080175 0.860733
v -0.017777 1.061414 1.089509
v -0.552715 1.080175 0.860733
v -0.552715 0.859166 0.484567
v -0.016401 0.794248 1.583979
v 0.670017 0.508312 1.584054
v 0.670017 -0.063562 1.584205
v -0.016401 -0.349499 1.584280
v -0.702819 -0.063562 1.584205
v -0.702819 0.508312 1.584054
v -0.016401 0.523600 2.247396
v 0.420017 0.341804 2.247444
v 0.420017 0.103295 2.247507
v -0.016401 -0.078501 2.247555
v -0.452819 0.103295 2.247507
v -0.452819 0.341804 2.247444
v -0.016401 0.686094 2.247353
v 0.570017 0.441814 2.247417
v 0.570017 0.003286 2.247533
v -0.016401 -0.240995 2.247598
v -0.602819 0.003286 2.247533
v -0.602819 0.441814 2.247417
v -0.016401 0.523340 1.261273
v 0.420017 0.341544 1.261321
v 0.420017 0.103035 1.261384
v -0.016401 -0.078761 1.261432
v -0.452819 0.103035 1.261384
v -0.452819 0.341544 1.261321
vn 0.3840 -0.0000 -0.9233
vn 1.0000 -0.0000 -0.0000
vn 0.3840 -0.0000 0.9233
vn -0.3840 -0.0000 0.9233
vn 0.3937 0.0176 -0.9191
vn -1.0000 -0.0000 -0.0000
vn -0.3840 -0.0000 -0.9233
vn -1.0000 -0.0001 -0.0003
vn -0.3771 -0.9215 -0.0931
vn -0.3741 0.9273 0.0155
vn 0.3735 0.9275 0.0157
vn 1.0000 0.0004 -0.0016
vn 0.3776 -0.9212 -0.0939
vn 1.0000 0.0020 -0.0019
vn 1.0000 0.0013 -0.0004
vn 0.3909 0.5534 0.7355
vn 0.3697 0.0296 0.9287
vn -0.3905 0.5528 0.7362
vn -0.3691 0.0299 0.9289
vn -1.0000 -0.0003 0.0003
vn -1.0000 0.0002 -0.0000
vn -0.3712 -0.7527 -0.5438
vn -0.3825 -0.0051 -0.9239
vn 0.3715 -0.7519 -0.5446
vn 0.3818 -0.0043 -0.9242
vn 0.1198 0.9610 -0.2493
vn -0.0000 0.8815 -0.4722
vn -0.1198 0.9610 -0.2493
vn -0.0000 0.9484 -0.3171
vn -0.3937 0.0176 -0.9191
vn -0.3937 -0.0176 0.9191
vn 0.3937 -0.0176 0.9191
vn -0.0000 0.0003 1.0000
vn -0.3845 -0.9231 0.0002
vn 0.3845 -0.9231 0.0002
vn 0.3845 0.9231 -0.0002
vn -0.3845 0.9231 -0.0002
vt 1.000000 0.500000
vt 1.000000 1.000000
vt 0.833333 1.000000
vt 0.833333 0.500000
vt 0.666667 1.000000
vt 0.666667 0.500000
vt 0.500000 1.000000
vt 0.500000 0.500000
vt 0.333333 1.000000
vt 0.333333 0.500000
vt 0.087672 0.167453
vt 0.250000 0.077354
vt 0.166667 1.000000
vt 0.166667 0.500000
vt -0.000000 1.000000
vt -0.000000 0.500000
vt 0.222222 0.500000
vt 0.277778 0.500000
vt 0.777778 0.500000
vt 0.722222 0.500000
vt 0.777778 0.500000
vt 0.277778 0.500000
vt 0.222222 0.500000
vt 0.250000 0.422646
vt 0.412328 0.332547
vt 0.457846 0.370000
vt 0.250000 0.490000
vt 0.412328 0.167453
vt 0.457846 0.130000
vt 0.250000 0.010000
vt 0.042154 0.130000
vt 0.087672 0.332547
vt 0.042154 0.370000
vt 0.192255 0.500000
vt 0.329681 0.500000
vt 0.108104 0.500000
vt 0.727987 0.500000
vt 0.648265 0.500000
vt 0.487660 0.500000
vt 0.604235 0.500000
vt 0.239212 0.500000
vt 0.600923 0.500000
vt 0.465404 0.500000
vt 0.325290 0.500000
vt 0.244077 0.500000
s 0
usemtl Material.002
f 1/1/1 32/2/1 31/3/1 3/4/1
f 3/4/2 31/3/2 33/5/2 5/6/2
f 5/6/3 33/5/3 34/7/3 7/8/3
f 7/8/4 34/7/4 35/9/4 9/10/4
f 10/11/5 8/12/5 40/12/5 41/11/5
f 9/10/6 35/9/6 36/13/6 11/14/6
f 11/14/7 36/13/7 32/15/7 1/16/7
f 47/10/8 48/14/8 26/17/8 28/18/8
f 46/8/9 47/10/9 28/18/9 29/10/9
f 48/14/10 43/16/10 24/14/10 26/17/10
f 43/1/11 44/4/11 22/19/11 24/4/11
f 44/4/12 45/6/12 20/20/12 22/19/12
f 45/6/13 46/8/13 29/6/13 20/20/13
f 22/19/14 20/20/14 19/21/14 21/20/14
f 21/20/15 19/21/15 3/4/15 5/6/15
f 24/4/16 22/19/16 21/20/16 23/6/16
f 23/6/17 21/20/17 5/6/17 7/8/17
f 26/17/18 24/14/18 23/10/18 25/22/18
f 25/22/19 23/10/19 7/8/19 9/10/19
f 28/18/20 26/17/20 25/22/20 27/23/20
f 27/23/21 25/22/21 9/10/21 11/14/21
f 29/10/22 28/18/22 27/23/22 30/14/22
f 30/14/23 27/23/23 11/14/23 1/16/23
f 20/20/24 29/6/24 30/4/24 19/21/24
f 19/21/25 30/4/25 1/1/25 3/4/25
f 2/24/26 4/25/26 31/26/26 32/27/26
f 4/25/27 6/28/27 33/29/27 31/26/27
f 6/28/28 8/12/28 34/30/28 33/29/28
f 8/12/26 10/11/26 35/31/26 34/30/26
f 10/11/27 12/32/27 36/33/27 35/31/27
f 12/32/28 2/24/28 32/27/28 36/33/28
f 37/25/29 38/24/29 42/32/29 41/11/29 40/12/29 39/28/29
f 6/28/6 4/25/6 37/25/6 39/28/6
f 12/32/2 10/11/2 41/11/2 42/32/2
f 8/12/30 6/28/30 39/28/30 40/12/30
f 4/25/31 2/24/31 38/24/31 37/25/31
f 2/24/32 12/32/32 42/32/32 38/24/32
f 18/34/6 17/35/6 59/35/6 60/34/6
f 13/36/33 14/37/33 44/4/33 43/16/33
f 14/37/33 15/38/33 45/6/33 44/4/33
f 15/38/33 16/39/33 46/8/33 45/6/33
f 16/39/33 17/35/33 47/10/33 46/8/33
f 17/35/33 18/34/33 48/14/33 47/10/33
f 18/34/33 13/36/33 43/16/33 48/14/33
f 50/40/34 49/41/34 61/41/34 62/40/34
f 16/39/35 15/38/35 57/38/35 58/39/35
f 14/37/36 13/36/36 55/36/36 56/37/36
f 13/36/37 18/34/37 60/34/37 55/36/37
f 17/35/34 16/39/34 58/39/34 59/35/34
f 15/38/2 14/37/2 56/37/2 57/38/2
f 49/41/33 50/40/33 56/37/33 55/36/33
f 50/40/33 51/42/33 57/38/33 56/37/33
f 51/42/33 52/43/33 58/39/33 57/38/33
f 52/43/33 53/44/33 59/35/33 58/39/33
f 53/44/33 54/45/33 60/34/33 59/35/33
f 54/45/33 49/41/33 55/36/33 60/34/33
f 61/41/33 66/45/33 65/44/33 64/43/33 63/42/33 62/40/33
f 49/41/35 54/45/35 66/45/35 61/41/35
f 53/44/36 52/43/36 64/43/36 65/44/36
f 51/42/6 50/40/6 62/40/6 63/42/6
f 54/45/2 53/44/2 65/44/2 66/45/2
f 52/43/37 51/42/37 63/42/37 64/43/37
o Cylinder.001
v 2.449442 1.921165 0.407894
v 2.449442 4.144517 0.322248
v 2.723938 1.921165 0.566374
v 2.798110 4.144517 0.523552
v 2.723938 1.921165 0.883335
v 2.798110 4.144517 0.926158
v 2.449442 1.921165 1.041816
v 2.449442 4.144517 1.127461
v 2.174946 1.921165 0.883335
v 2.100775 4.144517 0.926158
v 2.174946 1.921165 0.566374
v 2.100775 4.144517 0.523552
v 2.449442 2.016907 0.322248
v 2.798110 2.016907 0.523552
v 2.798110 2.016907 0.926158
v 2.449442 2.016907 1.127461
v 2.100775 2.016907 0.926158
v 2.100775 2.016907 0.523552
v 2.449442 1.658503 0.492723
v 2.650474 1.658503 0.608789
v 2.650474 1.658503 0.840921
v 2.449442 1.658503 0.956987
v 2.248410 1.658503 0.840921
v 2.248410 1.658503 0.608789
v 2.449442 1.732969 0.407894
v 2.723938 1.732969 0.566374
v 2.723938 1.732969 0.883335
v 2.449442 1.732969 1.041816
v 2.174946 1.732969 0.883335
v 2.174946 1.732969 0.566374
v 2.449442 1.615024 0.492723
v 2.650474 1.615024 0.608789
v 2.650474 1.615024 0.840921
v 2.449442 1.615024 0.956987
v 2.248410 1.615024 0.840921
v 2.248410 1.615024 0.608789
v 2.450577 1.333949 0.424131
v 2.450577 1.514708 0.304600
v 2.698122 1.333949 0.567051
v 2.801639 1.514708 0.507286
v 2.698122 1.333949 0.852893
v 2.801639 1.514708 0.912658
v 2.450577 1.333949 0.995813
v 2.450577 1.514708 1.115344
v 2.203031 1.333949 0.852893
v 2.099514 1.514708 0.912658
v 2.203031 1.333949 0.567051
v 2.099514 1.514708 0.507286
v 2.450577 1.333949 0.304600
v 2.801639 1.333949 0.507286
v 2.801639 1.333949 0.912658
v 2.450577 1.333949 1.115344
v 2.099514 1.333949 0.912658
v 2.099514 1.333949 0.507286
v 2.450577 1.196981 0.621759
v 2.526971 1.196981 0.665866
v 2.526971 1.196981 0.754078
v 2.450577 1.196981 0.798185
v 2.374182 1.196981 0.754078
v 2.374182 1.196981 0.665866
v 2.450577 1.196981 0.424131
v 2.698122 1.196981 0.567051
v 2.698122 1.196981 0.852893
v 2.450577 1.196981 0.995813
v 2.203031 1.196981 0.852893
v 2.203031 1.196981 0.567051
v 2.450577 0.835695 0.621759
v 2.526971 0.835695 0.665866
v 2.526971 0.835695 0.754078
v 2.450577 0.835695 0.798185
v 2.374182 0.835695 0.754078
v 2.374182 0.835695 0.665866
v 2.449442 3.904447 0.322248
v 2.798110 3.904447 0.523552
v 2.798110 3.904447 0.926158
v 2.449442 3.904447 1.127461
v 2.100775 3.904447 0.926158
v 2.100775 3.904447 0.523552
v 2.798110 2.235758 0.523552
v 2.798110 2.235758 0.926158
v 2.449442 2.235758 1.127461
v 2.100775 2.235758 0.926158
v 2.100775 2.235758 0.523552
v 2.449442 2.235758 0.322248
vn 0.5000 -0.0000 -0.8660
vn 1.0000 -0.0000 -0.0000
vn 0.5000 -0.0000 0.8660
vn -0.5000 -0.0000 0.8660
vn -0.0000 1.0000 -0.0000
vn -1.0000 -0.0000 -0.0000
vn -0.5000 -0.0000 -0.8660
vn 0.3953 -0.6124 -0.6846
vn 0.7905 -0.6124 -0.0000
vn 0.3953 -0.6124 0.6846
vn -0.3953 -0.6124 0.6846
vn -0.7905 -0.6124 -0.0000
vn -0.3953 -0.6124 -0.6846
vn 0.3559 -0.7023 -0.6165
vn 0.7119 -0.7023 -0.0000
vn 0.3559 -0.7023 0.6165
vn -0.3559 -0.7023 0.6165
vn -0.7119 -0.7023 -0.0000
vn -0.3559 -0.7023 -0.6165
vn -0.5588 0.8293 -0.0000
vn -0.2628 0.8507 -0.4552
vn -0.2960 0.8060 0.5127
vn 0.2944 0.8083 0.5099
vn 0.5529 0.8332 -0.0000
vn 0.2615 0.8523 -0.4529
vn -0.0000 -1.0000 -0.0000
vt 1.000000 0.750000
vt 1.000000 1.000000
vt 0.833333 1.000000
vt 0.833333 0.750000
vt 0.666667 1.000000
vt 0.666667 0.750000
vt 0.500000 1.000000
vt 0.500000 0.750000
vt 0.333333 1.000000
vt 0.333333 0.750000
vt 0.457846 0.370000
vt 0.250000 0.490000
vt 0.042154 0.370000
vt 0.042154 0.130000
vt 0.250000 0.010000
vt 0.457846 0.130000
vt 0.166667 1.000000
vt 0.166667 0.750000
vt -0.000000 1.000000
vt -0.000000 0.750000
vt 0.913631 0.344473
vt 0.913631 0.155527
vt 0.750000 0.438945
vt 0.750000 0.490000
vt 0.957846 0.370000
vt 0.957846 0.130000
vt 0.750000 0.061055
vt 0.750000 0.010000
vt 0.586369 0.155527
vt 0.542154 0.130000
vt 0.586369 0.344473
vt 0.542154 0.370000
vt 0.630162 0.319189
vt 0.750000 0.388377
vt 0.869838 0.319189
vt 0.869838 0.180811
vt 0.750000 0.111623
vt 0.630162 0.180811
vt 1.000000 0.500000
vt 0.833333 0.500000
vt 0.666667 0.500000
vt 0.500000 0.500000
vt 0.333333 0.500000
vt 0.166667 0.500000
vt -0.000000 0.500000
vt 0.896559 0.334616
vt 0.896559 0.165384
vt 0.750000 0.419232
vt 0.750000 0.080768
vt 0.603441 0.165384
vt 0.603441 0.334616
vt 0.750000 0.302226
vt 0.795229 0.276113
vt 0.795229 0.223887
vt 0.750000 0.197774
vt 0.704771 0.223887
vt 0.704771 0.276113
vt 0.166667 0.625000
vt -0.000000 0.625000
vt 0.333333 0.625000
vt 0.500000 0.625000
vt 0.666667 0.625000
vt 0.833333 0.625000
vt 1.000000 0.625000
s 0
usemtl Material.003
f 139/46/38 68/47/38 70/48/38 140/49/38
f 140/49/39 70/48/39 72/50/39 141/51/39
f 141/51/40 72/50/40 74/52/40 142/53/40
f 142/53/41 74/52/41 76/54/41 143/55/41
f 70/56/42 68/57/42 78/58/42 76/59/42 74/60/42 72/61/42
f 143/55/43 76/54/43 78/62/43 144/63/43
f 144/63/44 78/62/44 68/64/44 139/65/44
f 69/66/39 71/67/39 93/67/39 92/66/39
f 69/66/45 67/68/45 79/69/45 80/70/45
f 71/67/46 69/66/46 80/70/46 81/71/46
f 73/72/47 71/67/47 81/71/47 82/73/47
f 75/74/48 73/72/48 82/73/48 83/75/48
f 77/76/49 75/74/49 83/75/49 84/77/49
f 67/68/50 77/76/50 84/77/50 79/69/50
f 90/78/44 85/79/44 97/79/44 102/78/44
f 75/74/43 77/76/43 96/76/43 95/74/43
f 71/67/40 73/72/40 94/72/40 93/67/40
f 67/68/38 69/66/38 92/66/38 91/68/38
f 77/76/44 67/68/44 91/68/44 96/76/44
f 73/72/41 75/74/41 95/74/41 94/72/41
f 86/80/51 85/79/51 91/68/51 92/66/51
f 87/81/52 86/80/52 92/66/52 93/67/52
f 88/82/53 87/81/53 93/67/53 94/72/53
f 89/83/54 88/82/54 94/72/54 95/74/54
f 90/78/55 89/83/55 95/74/55 96/76/55
f 85/79/56 90/78/56 96/76/56 91/68/56
f 114/62/57 112/54/57 101/83/57 102/78/57
f 88/82/41 89/83/41 101/83/41 100/82/41
f 86/80/39 87/81/39 99/81/39 98/80/39
f 89/83/43 90/78/43 102/78/43 101/83/43
f 87/81/40 88/82/40 100/82/40 99/81/40
f 85/79/38 86/80/38 98/80/38 97/79/38
f 115/84/38 104/47/38 106/48/38 116/85/38
f 116/85/39 106/48/39 108/50/39 117/86/39
f 117/86/40 108/50/40 110/52/40 118/87/40
f 118/87/41 110/52/41 112/54/41 119/88/41
f 104/64/58 114/62/58 102/78/58 97/79/58
f 119/88/43 112/54/43 114/62/43 120/89/43
f 120/89/44 114/62/44 104/64/44 115/90/44
f 105/91/39 107/92/39 129/92/39 128/91/39
f 112/54/59 110/52/59 100/82/59 101/83/59
f 110/52/60 108/50/60 99/81/60 100/82/60
f 108/50/61 106/48/61 98/80/61 99/81/61
f 106/48/62 104/47/62 97/79/62 98/80/62
f 105/91/63 103/93/63 115/69/63 116/70/63
f 107/92/63 105/91/63 116/70/63 117/71/63
f 109/94/63 107/92/63 117/71/63 118/73/63
f 111/95/63 109/94/63 118/73/63 119/75/63
f 113/96/63 111/95/63 119/75/63 120/77/63
f 103/93/63 113/96/63 120/77/63 115/69/63
f 121/97/38 122/98/38 134/98/38 133/97/38
f 111/95/43 113/96/43 132/96/43 131/95/43
f 107/92/40 109/94/40 130/94/40 129/92/40
f 103/93/38 105/91/38 128/91/38 127/93/38
f 113/96/44 103/93/44 127/93/44 132/96/44
f 109/94/41 111/95/41 131/95/41 130/94/41
f 122/98/63 121/97/63 127/93/63 128/91/63
f 123/99/63 122/98/63 128/91/63 129/92/63
f 124/100/63 123/99/63 129/92/63 130/94/63
f 125/101/63 124/100/63 130/94/63 131/95/63
f 126/102/63 125/101/63 131/95/63 132/96/63
f 121/97/63 126/102/63 132/96/63 127/93/63
f 133/97/63 134/98/63 135/99/63 136/100/63 137/101/63 138/102/63
f 126/102/44 121/97/44 133/97/44 138/102/44
f 124/100/41 125/101/41 137/101/41 136/100/41
f 122/98/39 123/99/39 135/99/39 134/98/39
f 125/101/43 126/102/43 138/102/43 137/101/43
f 123/99/40 124/100/40 136/100/40 135/99/40
f 79/84/38 150/109/38 145/108/38 80/85/38
f 80/85/39 145/108/39 146/107/39 81/86/39
f 81/86/40 146/107/40 147/106/40 82/87/40
f 82/87/41 147/106/41 148/105/41 83/88/41
f 83/88/43 148/105/43 149/103/43 84/89/43
f 84/89/44 149/103/44 150/104/44 79/90/44
usemtl Material.004
f 149/103/44 144/63/44 139/65/44 150/104/44
f 148/105/43 143/55/43 144/63/43 149/103/43
f 147/106/41 142/53/41 143/55/41 148/105/41
f 146/107/40 141/51/40 142/53/40 147/106/40
f 145/108/39 140/49/39 141/51/39 146/107/39
f 150/109/38 139/46/38 140/49/38 145/108/38
o Cylinder.002
v -0.015713 0.666277 2.901955
v -0.015713 0.799343 3.957195
v 0.515409 0.444712 2.901955
v 0.674899 0.511245 3.957195
v 0.515409 0.001583 2.901955
v 0.674899 -0.064950 3.957195
v -0.015713 -0.219982 2.901955
v -0.015713 -0.353048 3.957195
v -0.546835 0.001583 2.901955
v -0.706325 -0.064950 3.957195
v -0.546835 0.444712 2.901955
v -0.706325 0.511245 3.957195
v -0.015713 0.799343 2.901955
v 0.674899 0.511245 2.901955
v 0.674899 -0.064950 2.901955
v -0.015713 -0.353048 2.901955
v -0.706325 -0.064950 2.901955
v -0.706325 0.511245 2.901955
v -0.015713 0.799343 2.901955
v 0.674899 0.511245 2.901955
v 0.674899 -0.064950 2.901955
v -0.015713 -0.353048 2.901955
v -0.706325 -0.064950 2.901955
v -0.706325 0.511245 2.901955
v -0.015713 0.666277 3.785746
v 0.515409 0.444712 3.785746
v 0.515409 0.001583 3.785746
v -0.015713 -0.219982 3.785746
v -0.546835 0.001583 3.785746
v -0.546835 0.444712 3.785746
vn 0.3850 0.9229 -0.0000
vn 1.0000 -0.0000 -0.0000
vn 0.3850 -0.9229 -0.0000
vn -0.3850 -0.9229 -0.0000
vn -0.0000 -0.0000 1.0000
vn -1.0000 -0.0000 -0.0000
vn -0.3850 0.9229 -0.0000
vn -0.0000 -0.0000 -1.0000
vt 1.000000 0.500000
vt 1.000000 1.000000
vt 0.833333 1.000000
vt 0.833333 0.500000
vt 0.666667 1.000000
vt 0.666667 0.500000
vt 0.500000 1.000000
vt 0.500000 0.500000
vt 0.333333 1.000000
vt 0.333333 0.500000
vt 0.457846 0.370000
vt 0.250000 0.490000
vt 0.042154 0.370000
vt 0.042154 0.130000
vt 0.250000 0.010000
vt 0.457846 0.130000
vt 0.166667 1.000000
vt 0.166667 0.500000
vt -0.000000 1.000000
vt -0.000000 0.500000
vt 0.750000 0.065426
vt 0.590154 0.157713
vt 0.957846 0.370000
vt 0.750000 0.490000
vt 0.957846 0.130000
vt 0.750000 0.010000
vt 0.542154 0.130000
vt 0.542154 0.370000
vt 0.909846 0.342287
vt 0.750000 0.434574
vt 0.909846 0.157713
vt 0.590154 0.342287
s 0
usemtl Material.001
f 163/110/64 152/111/64 154/112/64 164/113/64
f 164/113/65 154/112/65 156/114/65 165/115/65
f 165/115/66 156/114/66 158/116/66 166/117/66
f 166/117/67 158/116/67 160/118/67 167/119/67
f 154/120/68 152/121/68 162/122/68 160/123/68 158/124/68 156/125/68
f 167/119/69 160/118/69 162/126/69 168/127/69
f 168/127/70 162/126/70 152/128/70 163/129/70
f 157/130/64 159/131/64 179/131/64 178/130/64
f 170/132/68 169/133/68 163/133/68 164/132/68
f 171/134/68 170/132/68 164/132/68 165/134/68
f 172/135/68 171/134/68 165/134/68 166/135/68
f 173/136/68 172/135/68 166/135/68 167/136/68
f 174/137/68 173/136/68 167/136/68 168/137/68
f 169/133/68 174/137/68 168/137/68 163/133/68
f 153/138/71 151/139/71 169/133/71 170/132/71
f 155/140/71 153/138/71 170/132/71 171/134/71
f 157/130/71 155/140/71 171/134/71 172/135/71
f 159/131/71 157/130/71 172/135/71 173/136/71
f 161/141/71 159/131/71 173/136/71 174/137/71
f 151/139/71 161/141/71 174/137/71 169/133/71
f 175/139/71 176/138/71 177/140/71 178/130/71 179/131/71 180/141/71
f 153/138/69 155/140/69 177/140/69 176/138/69
f 159/131/65 161/141/65 180/141/65 179/131/65
f 155/140/70 157/130/70 178/130/70 177/140/70
f 151/139/67 153/138/67 176/138/67 175/139/67
f 161/141/66 151/139/66 175/139/66 180/141/66
