# Blender 4.4.0
# www.blender.org
mtllib Inhalador cuerpo.mtl
o Cylinder
v -0.017777 1.164491 0.154711
v -0.017777 3.579253 0.307640
v 0.667161 1.164491 0.439605
v 0.517161 3.560491 0.536415
v 0.667161 1.164491 1.009391
v 0.517161 3.781500 0.912581
v -0.017777 1.164491 1.294285
v -0.017777 3.762738 1.141356
v -0.702715 1.164491 1.009391
v -0.552715 3.781500 0.912581
v -0.702715 1.164491 0.439605
v -0.552715 3.560491 0.536415
v -0.016401 0.685919 1.584007
v 0.570017 0.441639 1.584072
v 0.570017 0.003111 1.584187
v -0.016401 -0.241170 1.584252
v -0.602819 0.003111 1.584187
v -0.602819 0.441639 1.584072
v 0.667960 0.374034 0.441739
v 0.669237 -0.005947 0.971011
v 0.668060 0.637896 1.038038
v 0.669096 0.524990 1.181605
v -0.017320 0.863855 1.291432
v -0.016899 0.790000 1.287598
v -0.702801 0.636513 1.039032
v -0.702753 0.524072 1.182998
v -0.702901 0.372651 0.442732
v -0.702611 -0.006866 0.972404
v -0.016616 -0.271875 0.866410
v -0.017521 0.241411 0.161056
v 0.667161 3.528125 0.439605
v -0.017777 3.528125 0.154711
v 0.667161 3.813866 1.009391
v -0.017777 3.813866 1.294285
v -0.702715 3.813866 1.009391
v -0.702715 3.528125 0.439605
v 0.517161 0.859166 0.484567
v -0.017777 0.877928 0.255792
v 0.517161 1.080175 0.860733
v -0.017777 1.061414 1.089509
v -0.552715 1.080175 0.860733
v -0.552715 0.859166 0.484567
v -0.016401 0.794248 1.583979
v 0.670017 0.508312 1.584054
v 0.670017 -0.063562 1.584205
v -0.016401 -0.349499 1.584280
v -0.702819 -0.063562 1.584205
v -0.702819 0.508312 1.584054
v -0.016401 0.523600 2.247396
v 0.420017 0.341804 2.247444
v 0.420017 0.103295 2.247507
v -0.016401 -0.078501 2.247555
v -0.452819 0.103295 2.247507
v -0.452819 0.341804 2.247444
v -0.016401 0.686094 2.247353
v 0.570017 0.441814 2.247417
v 0.570017 0.003286 2.247533
v -0.016401 -0.240995 2.247598
v -0.602819 0.003286 2.247533
v -0.602819 0.441814 2.247417
v -0.016401 0.523340 1.261273
v 0.420017 0.341544 1.261321
v 0.420017 0.103035 1.261384
v -0.016401 -0.078761 1.261432
v -0.452819 0.103035 1.261384
v -0.452819 0.341544 1.261321
vn 0.3840 -0.0000 -0.9233
vn 1.0000 -0.0000 -0.0000
vn 0.3840 -0.0000 0.9233
vn -0.3840 -0.0000 0.9233
vn 0.3937 0.0176 -0.9191
vn -1.0000 -0.0000 -0.0000
vn -0.3840 -0.0000 -0.9233
vn -1.0000 -0.0001 -0.0003
vn -0.3771 -0.9215 -0.0931
vn -0.3741 0.9273 0.0155
vn 0.3735 0.9275 0.0157
vn 1.0000 0.0004 -0.0016
vn 0.3776 -0.9212 -0.0939
vn 1.0000 0.0020 -0.0019
vn 1.0000 0.0013 -0.0004
vn 0.3909 0.5534 0.7355
vn 0.3697 0.0296 0.9287
vn -0.3905 0.5528 0.7362
vn -0.3691 0.0299 0.9289
vn -1.0000 -0.0003 0.0003
vn -1.0000 0.0002 -0.0000
vn -0.3712 -0.7527 -0.5438
vn -0.3825 -0.0051 -0.9239
vn 0.3715 -0.7519 -0.5446
vn 0.3818 -0.0043 -0.9242
vn 0.1198 0.9610 -0.2493
vn -0.0000 0.8815 -0.4722
vn -0.1198 0.9610 -0.2493
vn -0.0000 0.9484 -0.3171
vn -0.3937 0.0176 -0.9191
vn -0.3937 -0.0176 0.9191
vn 0.3937 -0.0176 0.9191
vn -0.0000 0.0003 1.0000
vn -0.3845 -0.9231 0.0002
vn 0.3845 -0.9231 0.0002
vn 0.3845 0.9231 -0.0002
vn -0.3845 0.9231 -0.0002
vt 1.000000 0.500000
vt 1.000000 1.000000
vt 0.833333 1.000000
vt 0.833333 0.500000
vt 0.666667 1.000000
vt 0.666667 0.500000
vt 0.500000 1.000000
vt 0.500000 0.500000
vt 0.333333 1.000000
vt 0.333333 0.500000
vt 0.087672 0.167453
vt 0.250000 0.077354
vt 0.166667 1.000000
vt 0.166667 0.500000
vt -0.000000 1.000000
vt -0.000000 0.500000
vt 0.222222 0.500000
vt 0.277778 0.500000
vt 0.777778 0.500000
vt 0.722222 0.500000
vt 0.777778 0.500000
vt 0.277778 0.500000
vt 0.222222 0.500000
vt 0.250000 0.422646
vt 0.412328 0.332547
vt 0.457846 0.370000
vt 0.250000 0.490000
vt 0.412328 0.167453
vt 0.457846 0.130000
vt 0.250000 0.010000
vt 0.042154 0.130000
vt 0.087672 0.332547
vt 0.042154 0.370000
vt 0.192255 0.500000
vt 0.329681 0.500000
vt 0.108104 0.500000
vt 0.727987 0.500000
vt 0.648265 0.500000
vt 0.487660 0.500000
vt 0.604235 0.500000
vt 0.239212 0.500000
vt 0.600923 0.500000
vt 0.465404 0.500000
vt 0.325290 0.500000
vt 0.244077 0.500000
s 0
usemtl Material.002
f 1/1/1 32/2/1 31/3/1 3/4/1
f 3/4/2 31/3/2 33/5/2 5/6/2
f 5/6/3 33/5/3 34/7/3 7/8/3
f 7/8/4 34/7/4 35/9/4 9/10/4
f 10/11/5 8/12/5 40/12/5 41/11/5
f 9/10/6 35/9/6 36/13/6 11/14/6
f 11/14/7 36/13/7 32/15/7 1/16/7
f 47/10/8 48/14/8 26/17/8 28/18/8
f 46/8/9 47/10/9 28/18/9 29/10/9
f 48/14/10 43/16/10 24/14/10 26/17/10
f 43/1/11 44/4/11 22/19/11 24/4/11
f 44/4/12 45/6/12 20/20/12 22/19/12
f 45/6/13 46/8/13 29/6/13 20/20/13
f 22/19/14 20/20/14 19/21/14 21/20/14
f 21/20/15 19/21/15 3/4/15 5/6/15
f 24/4/16 22/19/16 21/20/16 23/6/16
f 23/6/17 21/20/17 5/6/17 7/8/17
f 26/17/18 24/14/18 23/10/18 25/22/18
f 25/22/19 23/10/19 7/8/19 9/10/19
f 28/18/20 26/17/20 25/22/20 27/23/20
f 27/23/21 25/22/21 9/10/21 11/14/21
f 29/10/22 28/18/22 27/23/22 30/14/22
f 30/14/23 27/23/23 11/14/23 1/16/23
f 20/20/24 29/6/24 30/4/24 19/21/24
f 19/21/25 30/4/25 1/1/25 3/4/25
f 2/24/26 4/25/26 31/26/26 32/27/26
f 4/25/27 6/28/27 33/29/27 31/26/27
f 6/28/28 8/12/28 34/30/28 33/29/28
f 8/12/26 10/11/26 35/31/26 34/30/26
f 10/11/27 12/32/27 36/33/27 35/31/27
f 12/32/28 2/24/28 32/27/28 36/33/28
f 37/25/29 38/24/29 42/32/29 41/11/29 40/12/29 39/28/29
f 6/28/6 4/25/6 37/25/6 39/28/6
f 12/32/2 10/11/2 41/11/2 42/32/2
f 8/12/30 6/28/30 39/28/30 40/12/30
f 4/25/31 2/24/31 38/24/31 37/25/31
f 2/24/32 12/32/32 42/32/32 38/24/32
f 18/34/6 17/35/6 59/35/6 60/34/6
f 13/36/33 14/37/33 44/4/33 43/16/33
f 14/37/33 15/38/33 45/6/33 44/4/33
f 15/38/33 16/39/33 46/8/33 45/6/33
f 16/39/33 17/35/33 47/10/33 46/8/33
f 17/35/33 18/34/33 48/14/33 47/10/33
f 18/34/33 13/36/33 43/16/33 48/14/33
f 50/40/34 49/41/34 61/41/34 62/40/34
f 16/39/35 15/38/35 57/38/35 58/39/35
f 14/37/36 13/36/36 55/36/36 56/37/36
f 13/36/37 18/34/37 60/34/37 55/36/37
f 17/35/34 16/39/34 58/39/34 59/35/34
f 15/38/2 14/37/2 56/37/2 57/38/2
f 49/41/33 50/40/33 56/37/33 55/36/33
f 50/40/33 51/42/33 57/38/33 56/37/33
f 51/42/33 52/43/33 58/39/33 57/38/33
f 52/43/33 53/44/33 59/35/33 58/39/33
f 53/44/33 54/45/33 60/34/33 59/35/33
f 54/45/33 49/41/33 55/36/33 60/34/33
f 61/41/33 66/45/33 65/44/33 64/43/33 63/42/33 62/40/33
f 49/41/35 54/45/35 66/45/35 61/41/35
f 53/44/36 52/43/36 64/43/36 65/44/36
f 51/42/6 50/40/6 62/40/6 63/42/6
f 54/45/2 53/44/2 65/44/2 66/45/2
f 52/43/37 51/42/37 63/42/37 64/43/37
